<?xml version="1.0" encoding="UTF-8"?>
<svg data-bbox="759.989 359 400.011 367.49" viewBox="0 0 1920 1080" xmlns="http://www.w3.org/2000/svg" data-type="ugc">
    <g>
        <defs>
            <clipPath id="f2f93aeb-c16d-493d-b382-3ae2fde0420f">
                <path d="M1160 353.25v373.5H760v-373.5z"/>
            </clipPath>
        </defs>
        <g clip-path="url(#f2f93aeb-c16d-493d-b382-3ae2fde0420f)">
            <path d="M986.5 359.07c56.84 0 113.69.02 170.53-.07 2.48 0 2.97.49 2.97 2.97-.08 120.52-.08 241.04 0 361.55 0 2.49-.49 2.97-2.97 2.97-132.31-.08-264.62-.07-396.93-.07V486.84c1.39-1.25 3.13-1.16 4.81-1.17 17.4-.02 34.8-.03 52.21 0 1.57 0 3.16-.06 4.57.83 1.44 1.7 1.34 3.52.41 5.4-1.62 1.43-3.63 1.11-5.52 1.11-12.43.04-24.87 0-37.3.03-5.34 0-5.28.28-6.7 5.44-4.1 14.93-5.22 30.15-4.82 45.54.19 7.49 1.22 14.91 2.04 22.34-.08 1.2.23 2.31.92 3.3 2.53 12.33 5.62 24.53 10.19 36.27 5.86 15.06 13.86 29.04 23.48 41.95 9.91 13.31 21.46 25.22 34.53 35.5 27.4 21.58 58.5 34.81 92.97 39.62 32.01 4.47 63.35 1.22 93.84-9.91 19.14-6.98 36.62-16.73 52.65-29.3 13.89-10.9 25.91-23.42 36.39-37.66 8.31-11.3 14.63-23.5 20.46-36.18 8.26-17.96 12.21-36.88 14.18-56.32 1.92-18.9.17-37.63-3.67-56.19-.31-1.52-.47-3.16-2.03-4.08-1.39-.66-2.86-.41-4.29-.42-12.28-.02-24.57 0-36.85-.02-1.67 0-3.39.26-4.95-.65-1.41-1.54-1.26-3.28-.63-5.07 1.43-1.84 3.5-1.35 5.37-1.35 16.8-.05 33.61-.01 50.41-.05 1.38 0 2.89.45 4.33-.77-1.07-1.97-3.16-2.92-4.48-4.59-4.77-6.03-8.49-12.63-11.08-19.87-.82-2.29-.59-4.48.12-6.74 3.27-10.45 7.52-20.38 15.4-29.07-5.86-.15-11.24-.06-16.62-.07-8.07-.02-8.03-.07-5.88-7.93.9-3.31 2.67-6.21 3.75-9.42.73-2.17.29-3.53-1.75-4.81-18.15-11.38-37.66-19.64-58.07-25.99-22.37-6.96-45.23-11.38-68.45-14.02-6.59-.75-13.21-1.37-19.84-1.73-1.2-.06-2.43 0-3.51-.67-.36-.3-.43-.65-.19-1.05" fill="#fefefe"/>
            <path d="M986.53 359.7c37.51 2.21 74.23 8.33 109.49 21.82 13.74 5.26 27.05 11.38 39.46 19.34.79.51 1.71.83 2.56 1.24 1.86.89 2.49 1.92 1.72 4.23-1.7 5.08-4.33 9.79-5.63 15.03-.49 1.98-.27 2.52 1.84 2.49 7.49-.11 14.98-.04 22.65-.04-.18 2.26-2.26 2.9-3.34 4.31-6.53 8.57-10.63 18.29-13.4 28.63-.3 1.12.14 2.14.53 3.16 3.36 8.97 7.45 17.47 15.11 23.71.79.64 2.08 1.26 1.57 2.56-.52 1.33-1.89.64-2.85.64-19.58.08-39.15.11-58.73.15-2.83.36-2.33-1.91-2.4-3.35-.21-4.35-.24-8.71-.03-13.06.16-3.3-1.11-5.04-4.19-6.22-16.63-6.4-33.71-11.18-51.11-14.93-11.82-2.55-23.75-4.41-35.76-5.78-18.6-2.18-37.27-2.29-55.96-2.12-9.53.08-19.01.9-28.47 1.88-1.44.15-2.87.34-4.32.24-16.7 1.84-33.21 4.77-49.48 8.99-12.98 3.36-25.77 7.3-38.23 12.32-2.9 1.17-4.23 2.7-4.09 5.87.19 4.1.13 8.21 0 12.32-.05 1.43.43 3.27-1.72 3.83-20.55-.04-41.11-.07-61.66-.11v-2.18c2.17-3.64 5.23-6.59 7.88-9.84 3.75-4.58 6.07-9.8 8.08-15.25.62-1.68.25-3.28-.17-4.95-2.33-9.16-6.91-17.17-12.44-24.7-1.29-1.75-2.49-3.52-3.34-5.52v-.73c1.3-1.18 2.92-.99 4.48-1 5.56-.03 11.12-.07 16.67.02 2.69.04 3.51-.87 2.56-3.48-1.32-3.63-2.47-7.33-3.51-11.06-1.41-5.06-1.47-5.42 3.13-8.23 9.19-5.59 18.68-10.61 28.59-14.85 30.12-12.9 61.64-20.29 94.07-24.16 8.88-1.06 17.79-1.37 26.72-1.48h7.87c1.96-.19 3.97.41 5.89-.37h26.85c1.69.79 3.48.19 5.22.37h4.23c1.22.1 2.46-.23 3.65.25Z" fill="#231f20"/>
            <path d="M932.76 359.69c-30.07 1.87-59.73 6.14-88.66 14.91-12.22 3.7-24.13 8.15-35.81 13.35-8.82 3.94-17.02 8.93-25.49 13.48-2.35 1.26-3.07 2.6-2.01 5.39 2.05 5.39 3.55 10.99 5.4 16.87h-26.1c0-20.42.09-40.84-.1-61.25-.03-3.12.85-3.44 3.62-3.43 56.39.09 112.79.07 169.18.07.24.15.32.29.23.43-.09.13-.18.19-.27.19Z" fill="#fefefe"/>
            <path d="M760.1 424.41c8.24 9.26 14.23 19.75 17.19 31.86.17.68.27 1.49.08 2.14-3.12 10.48-9.01 19.16-17.27 26.27v-60.26Z" fill="#fefefe"/>
            <path d="M946.59 359.07c-1.81 1.41-3.9.49-5.85.67-.21-.16-.27-.32-.19-.46s.16-.21.23-.21z" fill="#585556"/>
            <path d="M978.62 359.64c-1.75 0-3.58.77-5.19-.57h5.08c.19.1.27.21.24.35-.03.15-.08.22-.13.22" fill="#585556"/>
            <path d="M932.76 359.69c.03-.2.04-.41.04-.61h4.35c.25.16.32.3.22.42-.09.12-.18.17-.28.17-1.45 0-2.89.01-4.34.02Z" fill="#c5c4c4"/>
            <path d="M978.62 359.64c-.03-.19-.06-.38-.11-.57h4.35c.22.11.3.24.24.38-.06.15-.12.22-.18.22-1.44 0-2.87-.02-4.31-.03Z" fill="#8c8a8a"/>
            <path d="M982.93 359.67q-.045-.3-.06-.6h3.63c-.02.21 0 .42.03.63-1.2 0-2.4-.01-3.6-.02Z" fill="#c7c6c6"/>
            <path d="m937.1 359.67.06-.6h3.63c.03.23.01.45-.05.67-1.21-.03-2.43-.05-3.64-.08Z" fill="#908e8e"/>
            <path d="M1145.37 492.58c2.82 9.67 4.18 19.62 4.94 29.6 2.13 28.08-.97 55.59-11.35 81.85-4.92 12.45-10.48 24.85-18.39 35.78-5.77 7.97-11.26 16.21-18.1 23.36-11.1 11.61-23.1 22.25-36.56 31-16.74 10.89-34.77 19.18-54.09 24.47-24.63 6.75-49.61 8.72-75.01 5.86-19.32-2.18-37.86-7.06-55.68-14.87-12.07-5.29-23.47-11.64-34.25-19.26-15.07-10.66-28.17-23.22-39.76-37.6-6.4-7.94-11.45-16.57-16.68-25.21-10.83-17.88-16.74-37.43-20.3-57.84-.55-.71-.64-1.66-1.21-2.37-2.9-19.2-3.29-38.45-.04-57.61.91-5.36 2.45-10.66 3.58-16.01.45-2.14 2.02-1.68 3.39-1.68 13.99-.02 27.98 0 41.98-.02 1.32 0 2.65-.08 3.97-.13 4.06-1.84 8.31-1.02 12.44-.63 2.52.24 1.79 2.46 1.27 4.04-2.07 6.32-3.95 12.69-5.18 19.24-5.19 27.68-1.73 54.29 11.32 79.17 5.5 10.49 12.53 20.22 21.1 28.84 9.14 9.2 19.3 16.83 30.45 23.17 6.91 3.93 14.14 7.39 21.85 9.6 9.34 2.92 18.78 5.28 28.55 6.31 19.68 2.08 38.94.36 57.78-5.78.8-.26 1.6-.55 2.4-.79 14.52-4.99 27.71-12.24 39.68-21.98 15.74-12.82 27.58-28.28 36.24-46.72 8.64-18.42 11.16-37.6 10.2-57.47-.52-10.64-2.87-21.04-6.31-31.17-.58-1.72-1.89-3.54-.31-5.45 4.27-1.3 8.63-.72 12.92-.42 1.78.13 3.57.42 5.37.42 13.28 0 26.57 0 39.85.02 1.31 0 2.66-.26 3.94.26Z" fill="#231f20"/>
            <path d="M914.61 656.08c-8.76-2.45-16.9-6.38-24.64-11.05-9.93-5.98-19.04-12.96-27.31-21.25-7.08-7.1-12.58-15.13-18.01-23.39-11.1-16.88-15.86-35.64-17.22-55.54-1.16-16.99 1.45-33.39 7.16-49.33 1.13-3.16.25-3.65-2.65-3.51-3.37.16-6.76-.05-10.13-.09-.02-1.65-.04-3.31-.05-4.96 1.22-.89.74-2.21.75-3.35.05-5.07.08-10.14 0-15.21-.04-1.96.59-2.81 2.55-3.61 23.07-9.37 47.01-15.56 71.51-19.67 6.03-1.01 12.13-1.59 18.2-2.36.74.72.89 1.68.8 2.59-.22 2.22.98 3.45 2.75 4.36-.33 2.39-2.28 1.64-3.65 1.78-13.63 1.34-27 3.96-40.21 7.55-3.06.83-4.8 2.59-6.12 5.51-9.39 20.82-16.54 42.3-19.78 64.99-2.51 17.53-2.93 34.94 3.25 51.9 2.78 7.64 6.47 14.82 11.46 21.32 4.12 5.37 7.84 11.03 12.68 15.83 6.87 6.82 14.07 13.24 22.46 18.13 4.69 2.73 9.31 5.65 14.39 7.67 1.27.51 2.33 1.29 2.69 2.74.16 3.03 1.08 6.14-.88 8.96Z" fill="#00a060"/>
            <path d="M1082.96 493.4c10.81 28.99 11.34 58.21.45 87.12-4.25 11.29-9.94 22.23-17.69 31.74-10.35 12.69-22.17 23.84-36.39 32.08-7.8 4.52-15.72 8.97-24.57 11.29-1.98-2.74-1.15-5.72-.75-8.67.78-1.68 2.35-2.36 3.92-3 12.46-5.03 23.3-12.55 33.43-21.3 7.96-6.88 13.71-15.46 19.99-23.74 10.02-13.2 12.27-28.3 12.7-44.07.56-20.65-3.12-40.73-9.38-60.24-3.46-10.77-7.31-21.49-11.92-31.88-1.08-2.44-2.65-3.83-5.31-4.29-13.68-2.38-27.35-4.84-41.18-6.21-1.27-.13-2.76.11-3.28-1.6 1.16-2.48-.09-5.47 1.66-7.82 18.63 1.78 36.91 5.44 54.97 10.32 11.4 3.08 22.58 6.78 33.58 11.08 2.16.84 2.94 1.9 2.86 4.2-.17 5.19-.08 10.38-.03 15.57.01 1.19-.6 2.83 1.52 2.99 0 1.59-.01 3.19-.02 4.78-3.9 1.16-7.91.18-11.84.57-.93.09-2.49-.93-2.71 1.08Z" fill="#f79728"/>
            <path d="M1082.96 493.4c-.36-.26-1.05-.56-1.01-.76.15-.97 1.05-.74 1.68-.75 4.63-.07 9.26-.1 13.88-.14 14.74.04 29.49.07 44.23.17 1.2 0 2.65-.76 3.63.66-19.71-.01-39.41-.03-59.12-.01-1.13 0-2.47-.5-3.3.83Z" fill="#917553"/>
            <path d="M768.94 567.36c1.44.26 1.53 1.21 1.21 2.37-1.4-.28-1.42-1.26-1.21-2.37" fill="#777575"/>
            <path d="M959.8 363.98c38.97.04 77.39 4.23 114.86 15.45 19.73 5.91 38.65 13.69 56.33 24.38 2.53 1.53 2.73 2.89 1.89 5.46-4.1 12.51-7.78 25.16-12.1 37.59-2.16 6.22-4.61 12.35-6.47 18.67-.65 2.21-1.67 1.8-3.17 1.04-7.23-3.65-14.8-6.52-22.38-9.32-23.98-8.85-48.73-14.77-74.03-18.28-23.15-3.21-46.43-4.45-69.79-3.5-26.87 1.09-53.39 4.61-79.5 11.24-19.36 4.91-38.23 11.13-56.28 19.72-3.4 1.62-3.78-1.08-4.43-3.06-2.81-8.61-5.51-17.26-8.24-25.9-2.47-7.83-4.88-15.69-7.43-23.49-.73-2.24-1.86-4.35-2.77-6.53-.52-1.25-.35-2.1 1.04-2.93 16.14-9.61 33.16-17.25 51.01-23.04 26.55-8.6 53.84-13.49 81.61-15.86 13.25-1.13 26.53-1.67 39.84-1.64Z" fill="#fcb713"/>
            <path d="M1004.63 442.81c-.6 2.64.7 5.46-.78 8.01-5.14 1.94-10.29.15-15.38-.19-18.07-1.21-36.13-1.65-54.21-.52-4.21.26-8.44.12-12.63.76-1.31.2-2.66.03-3.81-.79-2.34.27-3.43-.57-3.06-3.1.2-1.37.02-2.81 0-4.21 29.96-3.39 59.91-3.58 89.86.04Z" fill="#fefefe"/>
            <path d="M1101.87 468.1c3.23.39 2.62 2.5 2.64 4.2.08 6.66.06 6.66 6.61 6.66 9.18 0 18.37.01 27.55-.02 1.15 0 2.37.32 3.56-.35-1.74-4.9-5.06-8.9-7.3-13.5-3.74-7.69-.8-14.54 2.19-21.14 1.8-3.97 3.59-8.02 6.23-12.27-3.86 0-7.18.02-10.51-.02-.61 0-1.66.35-1.59-.77.05-.75.25-1.8 1.4-1.81 4.59-.03 9.18-.07 13.78 0 1.5.02 1.01 1.03.52 1.75-4.46 6.65-6.64 14.36-10.01 21.52-1.66 3.52-1.47 6.98.64 10.88 3.23 6 5.9 12.32 10.37 18.44h-17.6c-8.46 0-16.92-.1-25.38.06-2.61.05-3.31-.79-3.17-3.28.2-3.37.05-6.76.05-10.36Z" fill="#f8b516"/>
            <path d="M776.5 478.95c12.53 0 24.35-.02 36.17.02 1.54 0 2.17-.53 2.12-2.1-.07-2.17-.02-4.35.02-6.53.02-1.17.84-1.88 1.86-1.82 1.32.07.71 1.31.73 2 .08 2.9-.07 5.81.07 8.71.09 1.91-.58 2.48-2.48 2.47-14.26-.07-28.52-.04-42.85-.04-.28-1.77 1.09-2.67 1.83-3.79 10.11-15.15 10.66-22.13 2.86-38.56-1.29-2.72-2.77-5.36-4.26-7.99-.86-1.5-1.11-2.38 1.17-2.34 4.35.08 8.7.03 13.05.02 1.19 0 2.33.23 2.29 1.66-.04 1.57-1.41.94-2.21.95-3.46.08-6.92.03-10.82.03 3.74 7.28 6.68 14.36 8.77 21.81.89 3.2.74 6.14-.38 9.19-1.99 5.45-4.46 10.66-7.95 16.27Z" fill="#f8b516"/>
            <path d="M1090.22 497.2c1.04-.07 1.85-.18 2.66-.18 15.36 0 30.72.04 46.08-.06 2.41-.02 3.24.71 3.72 3.11 6.12 30.44 5.32 60.69-3.95 90.31-4.41 14.08-9.86 28.03-18.07 40.45-5.76 8.72-11.34 17.67-18.42 25.46-10.9 11.98-22.76 22.97-36.19 32.02-22.6 15.23-47.39 25.43-74.31 29.85-30.91 5.07-61.37 3.15-91.25-6.77-12.88-4.28-25.13-9.76-36.84-16.63-13.29-7.8-25.25-17.17-36.37-27.84-7.46-7.16-13.54-15.34-19.96-23.32-7.73-9.61-12.99-20.51-18.23-31.5-17.22-36.06-19.48-73.73-12.3-112.47.4-2.17 1.3-2.66 3.35-2.65 15.48.08 30.96.07 46.44 0 2.08 0 2.7.3 2.02 2.6-3.38 11.42-6.56 22.87-6.53 34.98.02 8.49-.03 17.04 2.01 25.23 3.53 14.12 7.43 28.21 15.05 40.84 10.14 16.81 22.88 31.42 39.14 42.46 33.37 22.66 70.03 30.23 109.73 22.53 12.88-2.5 25.06-6.88 36.74-12.91 14.31-7.39 26.72-17.03 37.82-28.73 7.24-7.63 12.7-16.29 18.11-25.15 11.89-19.49 15.97-40.93 15.95-63.34-.01-11.52-1.84-22.87-5.14-33.95-.41-1.37-.78-2.76-1.22-4.35Z" fill="#fcb713"/>
            <path d="m1004.49 646.72.27 8.92c-12.75 4.92-26.04 7.12-39.63 7.79-16.96.84-33.46-1.7-49.62-6.76-.33-.1-.6-.39-.9-.59.05-3.15.09-6.3.14-9.45 1.67-1.17 3.27-.28 4.81.26 26.82 9.43 53.66 9.07 80.53.24 1.4-.46 2.81-1.63 4.4-.41" fill="#fefefe"/>
            <path d="M1004.49 646.72c-17.04 6.42-34.64 9.16-52.83 7.96-10.76-.71-21.25-2.71-31.39-6.44-1.8-.66-3.68-1.08-5.52-1.61-5.24-2.94-10.67-5.54-15.9-8.52-3.38-1.92-6.51-4.12-9.58-6.43-10.29-7.75-18.8-17.09-26.27-27.63-7.53-10.61-13.11-21.88-15.49-34.65-2.14-11.47-1.88-22.98-.56-34.56 2.04-17.96 6.57-35.29 12.7-52.21 2.65-7.32 6.14-14.33 9.17-21.52.68-1.61 2.05-1.95 3.4-2.37 10.15-3.11 20.5-5.3 31.01-6.76 4.86-.67 9.74-1.27 14.61-1.9 28.7-3.02 57.37-2.2 86.02.74 14.98 1.74 29.87 4.03 44.7 6.76 2.69.5 3.86 1.75 4.83 4.07 3.04 7.25 5.5 14.7 8.4 21.99 6.28 15.78 10.03 32.17 12.14 48.95 1.94 15.45 1.9 30.82-1.73 46.12-3.33 14.05-12.1 24.89-21.07 35.36-11.83 13.79-26.41 24.23-43.39 31.07-1.11.45-2.16 1.05-3.23 1.58Z" fill="#231f20"/>
            <path d="M809.1 462.64c-5.35-11.82-8.64-24.28-12.64-36.48-1.73-5.28-3.22-10.64-5.1-15.86-.9-2.5-.46-3.78 1.87-5.16 15.23-9.06 31.5-15.79 48.3-21.15 17.5-5.59 35.42-9.5 53.62-12.13 16.63-2.4 33.34-3.8 50.14-4.35 28.82-.94 57.48.7 85.93 5.4 23.16 3.82 45.78 9.64 67.55 18.66 9.83 4.07 19.2 8.97 28.53 14 2.01 1.09 2.6 2.15 1.78 4.55-3 8.8-5.2 17.9-8.61 26.52-3.14 7.95-5.52 16.12-8.19 24.21-.71 2.15-1.51 1.84-3.07 1.12-13.51-6.21-27.49-11.17-41.76-15.27-25.38-7.28-51.28-11.68-77.62-13.68-25.99-1.97-51.91-1.38-77.75 1.69-21.85 2.6-43.37 6.91-64.43 13.42-13.16 4.07-26.07 8.72-38.55 14.51" fill="#231f20"/>
            <path d="M1117.18 500.37c6.41 0 12.82.09 19.23-.05 2.28-.05 3.05.68 3.47 2.95 4.8 25.43 4.85 50.86-1.71 75.88-4.05 15.45-9.02 30.85-17.46 44.62-5.78 9.42-11.41 19.04-18.73 27.42-10.65 12.2-22.26 23.45-35.59 32.67-26.18 18.11-55.08 29.2-86.85 32.54-27.32 2.87-53.98.02-80-8.87-12.03-4.11-23.48-9.36-34.42-15.84-14.31-8.48-27.1-18.75-38.76-30.63-6.65-6.77-12.09-14.35-17.83-21.79-8.64-11.21-14.27-23.92-19.8-36.8-11.55-26.88-14.05-54.91-11.45-83.68.48-5.3 1.37-10.54 2.27-15.78.33-1.9.95-2.68 2.97-2.67 12.94.07 25.88.14 38.82-.03 3.54-.05 2.2 1.86 1.79 3.4-5.95 22.84-6.37 45.8.28 68.42 4 13.61 9.42 26.93 17.91 38.5 5.54 7.55 11.15 15.19 18.09 21.57 22.83 20.97 49.41 34.24 80.29 38.29 30.18 3.96 58.92-.68 86.14-14.55 13.34-6.8 25.14-15.53 35.83-26.03 7.49-7.35 13.53-15.65 19.06-24.45 19.87-31.58 23.29-65.6 14.82-101.29-.84-3.52-.1-4 3.12-3.88 6.16.23 12.33.07 18.5.07Z" fill="#231f20"/>
            <path d="M953.33 460.65c30.85.09 58.68 2.99 86.32 8.01 1.92.35 2.81 1.17 3.62 2.91 10.15 21.89 15.95 44.95 18.25 68.88 1.3 13.54.93 27.08-3.73 40.13-3.69 10.33-10.41 18.67-17.78 26.52-23.07 24.56-51.51 36.38-85.15 35.18-20.14-.72-38.49-6.94-55.09-18.65-6.8-4.79-12.42-10.6-18.13-16.5-8.73-9.03-14.09-19.96-19.12-31.25-3.97-8.91-4.12-18.24-4.08-27.58.03-7.72.62-15.52 2.53-23.02 4.6-18.08 9.1-36.21 16.66-53.38.72-1.64 1.74-2.24 3.41-2.69 24.59-6.6 49.72-8.4 72.3-8.56Z" fill="#fcb713"/>
            <path d="M938.77 386.44c1.3-.97 2.29-1.86 3.41-2.54 3.4-2.08 6.75-1.82 9.56.97 1.61 1.6 2.73 2.19 4.61.24 2.6-2.7 5.94-3.91 9.57-2.23 3.31 1.54 3.74 4.71 3.82 8 .2 8.94.47 17.87.71 26.81.04 1.55-.19 3.15 1.53 4.14 1.19.68.78 1.96.67 2.97-.16 1.41-1.45 1.02-2.31 1.08-1.93.13-3.9-.11-5.79.19-3.78.6-4.68-1.57-4.77-4.59-.28-9.3-.49-18.6-.75-27.9-.05-1.61.47-3.82-2.02-3.89-2.53-.08-2.59 1.97-2.54 3.89.22 8.33.41 16.67.64 25 .03.95.07 1.98.43 2.84 1.98 4.73 1.8 5.05-3.16 5.07q-8.65.03-8.83-8.61c-.18-8.09-.37-16.19-.58-24.28-.04-1.39.31-3.28-1.81-3.29-2.06-.02-2.68 1.3-2.6 3.42.34 8.57.51 17.15.66 25.72.03 1.45.83 2.42 1.35 3.61.87 2 .82 3.8-2.29 3.73-3.25-.07-6.51.11-9.77.28-2.33.12-3.05-1.48-2.22-2.95 2.67-4.72 1.08-9.69 1.22-14.51.15-5.54-.29-11.1-.48-16.66-.07-2.12.2-4.14-1.52-6.07-1.1-1.24-1.05-3.29 1.78-3.31 3.01-.02 6.03-.2 9.04-.4 2.28-.15 1.81 1.78 2.47 3.29Z" fill="#fcb713"/>
            <path d="M865.85 396.42c1.68-1.83 2.67-3.25 3.98-4.27 4.57-3.58 10.9-1.54 12.26 4.11 2.06 8.57 3.82 17.21 5.72 25.82.49 2.2.83 4.32 2.59 6.17 1.49 1.56 1.45 3.38-1.51 4.1-9.72 2.34-10.08 2.2-12.27-7.67-1.67-7.54-3.26-15.11-4.95-22.64-.32-1.43-.35-3.56-2.66-3.06-2.01.44-2.27 1.93-1.8 3.95 1.89 8.11 3.61 16.27 5.32 24.42.34 1.61 1.21 2.76 2.19 4.03 1.27 1.65 1.86 3.55-1.35 4.11s-6.36 1.42-9.56 2.02c-.99.19-2.29.42-2.8-.91-.42-1.12-.86-2.49.45-3.28 1.12-.67 1.13-1.54.8-2.45-4.14-11.49-5.37-23.67-8.45-35.41-.42-1.6-.35-3.32-2.4-4.08-1.07-.4-1.22-1.8-1.07-2.87.14-1.01 1.2-1.02 2.02-1.21 2.83-.63 5.65-1.28 8.48-1.89 1.69-.36 2.72.15 3.04 2.07.46 2.71 1.17 5.37 1.97 8.95Z" fill="#fcb713"/>
            <path d="M1064.8 389.35c-.02-1.82.93-2.35 2.57-1.88 2.67.76 5.33 1.57 8 2.31 2.07.57 1.67 1.83 1.22 3.38-2.11 7.18-4.13 14.39-6.18 21.6-.13.45-.21.9-.56 2.48 3.43-4.16 6.17-7.5 8.93-10.82.91-1.1.53-1.95-.33-2.83-1.02-1.05-.66-2.25-.13-3.37.68-1.42 1.83-.76 2.84-.53 2 .47 3.99.94 5.96 1.5.97.28 2.37.19 2.41 1.69.04 1.4-.43 2.64-1.88 3.21-5.13 2.02-7.44 5.56-7.19 11.27.27 6.14-.23 12.32-.4 18.48-.04 1.44 0 2.81.49 4.26 1.13 3.31-.2 4.76-3.44 3.73-9.12-2.9-8.06-.36-7.67-10.48.12-3.08.39-6.14.65-10.11-4.13 3.94-5.17 8.14-4.92 12.6.2 3.43-.59 4.51-3.96 3.66-2.81-.71-5.58-1.56-8.35-2.44-2.59-.83-3.09-2.75-.85-4.34 1.51-1.07 1.87-2.39 2.3-3.87 2.84-9.87 5.75-19.71 8.45-29.61.67-2.46 3.12-4.44 2.05-7.37-.59-.83-.56-1.66-.03-2.51Z" fill="#fcb713"/>
            <path d="M891.68 413.82c-.13-5.03 2.06-8.52 6.74-10.48 1.33-.55 2.45-1.62 3.79-2.1 3.87-1.36 5.14-3.81 3.88-7.76-.44-1.39-.3-3.14-2.35-2.95-1.75.17-2.18 1.55-2.25 3.18-.21 5.33-1.99 6.95-7.14 6.9-2.17-.02-3.32-1-3.83-3.06-1.05-4.22 1.59-8.68 6.46-10.37 3.8-1.32 7.76-1.81 11.78-1.23 4.57.66 8.43 4.38 9.07 8.96 1.17 8.25 2.2 16.52 3.26 24.78.18 1.43.3 2.74 1.5 3.91 1.29 1.25 1.22 2.81-.42 3.99-2.49 1.78-8.34 1.77-10.53-.42-1.41-1.41-1.91-.91-3.03.2-6.03 6-13.09 4.21-15.55-3.91-.95-3.14-1.23-6.39-1.38-9.65Z" fill="#fcb713"/>
            <path d="M1026.49 412.08c-.98 5.29-2.56 10.31-6.56 14.2-6.52 6.36-16.23 4.62-20.16-3.6-3.88-8.12-1.48-25.69 4.44-32.42 6.11-6.95 16.36-5.63 21 2.36 3.17 5.47 3.01 11.17 2.53 17.04-.48.78-.65 1.72-1.26 2.42Z" fill="#fcb713"/>
            <path d="M833.22 392.45c1.65.19 3.07.58 4.14-1.59.68-1.37 2.66-1.56 3.74.44 1.46 2.72 3.61 5.06 4.63 8.03.42 1.22 2.16 2.62.22 3.73-1.53.88-3.4 1.37-4.98-.35-1.64-1.77-3.29-3.55-5.07-5.16-.93-.85-2.21-1.98-3.5-.79-1.29 1.2-.21 2.55.52 3.55 2.71 3.74 6.04 6.89 9.68 9.7 6.75 5.21 12.22 11.29 13.74 20.08 1.14 6.59-3.52 13.73-10.41 11.93-.86-.22-1.43 0-2.19.69-3.03 2.78-3.83 2.56-5.63-1.18-1.2-2.5-2.45-4.99-3.55-7.53-.47-1.07-1.98-2.4-.17-3.41 1.66-.93 3.49-1.12 4.73.93 1.33 2.21 3.29 3.78 5.36 5.24 1.26.89 2.55 2.26 4.15.84 1.71-1.53.63-3.21-.37-4.52-1.31-1.71-2.73-3.48-4.46-4.73-8.21-5.93-15.31-12.72-19.35-22.3-2.46-5.84 1.7-14.68 8.77-13.61Z" fill="#fcb713"/>
            <path d="M1029.85 418.65c.49-7.93 2.06-15.53 6.81-22.15 2.7-3.77 6.12-6.02 11.04-5.49 6.52.71 10.77 7.56 8.29 13.64-.71 1.75-1.77 3.27-4.02 2.9-2.29-.38-3.15-1.92-3.23-4.13-.06-1.76.64-3.3 1.14-4.91.37-1.2.25-2.27-1.04-2.66-1.33-.4-1.87.54-2.27 1.69-3.31 9.7-4.69 19.84-6.84 29.8-.24 1.12.04 2.23 1.17 2.79 1.31.64 2.28-.04 3.14-1.04 1.33-1.54 2.63-3.07 2.75-5.26.12-2.1 1.4-2.58 3.26-2.21 1.93.39 2.02 1.69 1.81 3.29-.67 5.18-4.8 9.38-9.91 9.98-4.57.54-8.58-2.13-10.66-7-1.27-2.97-1.47-6.07-1.43-9.24Z" fill="#fcb713"/>
            <path d="M991.43 388.62c.41-.87.74-1.8 1.25-2.6.98-1.53 2.34-2.51 4.25-2.07 1.76.4 2.39 1.8 2.79 3.43.55 2.21.28 4.36-.4 6.43-.97 2.93-3.4 3.28-5.45.88-.44-.52-.57-1.51-1.46-1.35-1.06.2-1 1.26-1.09 2.06-.25 2.16-.41 4.32-.6 6.49-.89 1.08-.53 2.37-.61 3.59-.12 1.5.34 3.07-.61 4.45-.23 3.13-.46 6.26-.67 9.39-.11 1.55-.42 3.06 1.67 3.84 1.36.51 1.08 2.06.83 3.22-.27 1.27-1.41 1.11-2.37 1.05-3.49-.22-6.98-.53-10.48-.67-2.97-.12-2.95-2.47-1.96-3.72 1.8-2.27 1.59-4.74 1.79-7.17.63-7.58 1.12-15.18 1.56-22.78.13-2.2.53-4.34-1.01-6.56-1.11-1.61-.44-3.58 2.39-3.29 2.64.28 5.29.42 7.94.61 1.64 1.12.69 2.81.92 4.23.17 1.07.55 1.17 1.31.53Z" fill="#fcb713"/>
            <path d="M991.43 388.62c-.34.96-.68 1.91-1.29 3.63-1.35-3.27-.15-5.95-.94-8.4 1.27-.15 1.66.53 1.72 1.69.06 1.03-.42 2.18.51 3.08" fill="#73664d"/>
            <path d="M989.51 409.92v-4.97c.33-.58.77-.57 1.27-.22-.22 1.78 1.15 3.94-1.27 5.18Z" fill="#665d4e"/>
            <path d="M990.78 404.74c-.42.07-.84.14-1.27.21.02-1.18-.75-2.67 1.22-3.07.02.95.03 1.91.05 2.86" fill="#c69c48"/>
            <path d="M1026.49 412.08c-.12-1.09-.23-2.17 1.26-2.42.18 1.12.31 2.21-1.26 2.42" fill="#7f7051"/>
            <path d="m1064.8 389.35.03 2.51c-.68-.14-1.39-.24-1.37-1.2.02-.89.65-1.12 1.34-1.31" fill="#c69c48"/>
            <path d="M930.85 693.26c1.32.96 2.25 1.7 3.25 2.33 4.49 2.85 4.61 8.68.41 11.96-3.1 2.43-6.5 3.19-10.21 2.52-5.58-1.01-11.13-2.22-16.68-3.4-.88-.19-2.08-.16-2.21-1.45-.11-1.03.65-1.49 1.52-1.73 1.44-.41 1.6-1.66 1.88-2.83 1.45-6.24 2.93-12.47 4.33-18.72.3-1.33 1.04-2.81-.7-3.88-.71-.44-.65-1.26-.21-1.94.47-.74 1.22-.67 1.95-.53 7.22 1.43 14.52 2.61 21.37 5.4 2.69 1.09 4.55 3.42 4.32 6.55-.24 3.3-2.59 4.7-5.63 5.16-.95.14-1.9.31-3.4.57Z" fill="#fcb713"/>
            <path d="M1070.87 650.89c3.72-1.16 6.85-2.18 10.54.02 4.43 2.64 5.46 9.3 1.45 13.49-4.32 4.51-9.09 8.59-13.68 12.84-.66.61-1.25 1.69-2.42.96-.84-.52-.91-1.34-.55-2.23.52-1.27-.26-2.17-1.1-2.81-5.02-3.84-8.63-9.04-13.1-13.4-1.36-1.32-2.19-3.67-4.92-2.57-.33.13-1.22-.71-1.6-1.26-.57-.83.22-1.13.78-1.63 3.78-3.38 7.49-6.85 11.25-10.25 2.36-2.13 4.89-3.9 8.25-4.13 5.69-.4 8.41 3.26 6.21 8.51-.3.72-.63 1.43-1.1 2.47Z" fill="#fcb713"/>
            <path d="M1103.2 585.73c-1.68-.9-2.87-1.38-4.4-.48-1.74 1.04-2.47.29-2.04-1.64.03-.12.06-.23.08-.35q2.05-9.25 10.91-6.33c6.19 2.02 12.42 3.93 18.62 5.93 1.06.34 1.87.59 3-.16 1.68-1.12 2.68-.11 2.02 1.6-1.2 3.1-1.33 6.65-3.75 9.24-.8.86-.31 1.84-.36 2.75-.27 5.26-3.24 8.32-8.52 8.29-6.35-.03-12.13-2.06-17.08-6.05-3.81-3.07-3.88-6.86-.51-10.41.66-.69 1.24-1.46 2.02-2.39Z" fill="#fcb713"/>
            <path d="M1111.59 621.79c3.28-.5 4 .34 2.84 2.59-1.27 2.47-2.57 4.92-3.86 7.39-.85 1.63-2.12 1.97-2.82.2-.69-1.74-2.05-2.28-3.4-2.97-4.61-2.36-9.24-4.66-13.87-6.99-.43-.22-.89-.64-1.3-.6-6.51.61-2.86-2.87-1.74-4.77 1.1-1.87.98-4.89 4.29-5.12 1.01-.07.48-1.42.54-2.18.59-8.05 4.8-10.43 11.89-6.67 3.84 2.04 7.66 4.11 11.52 6.1.93.48 1.79 1.1 2.98 1.12 4.06.07 4.19.31 2.11 3.91-.89 1.53-1.97 2.97-3.1 4.33-1.41 1.69-3.01.91-4.57.12-5.05-2.56-10.11-5.08-15.15-7.65-1.27-.65-2.29-.71-2.94.8-.5 1.15-.44 2.04.86 2.68 5.07 2.52 10.12 5.1 15.19 7.62.39.2.91.15.55.1Z" fill="#fcb713"/>
            <path d="M835.81 622.87c-1.29 1.84-.05 1.88.59 2.23 1.83 1 3.4 2.3 4.51 4.09 2.1 3.37 1.68 5.81-1.55 8.08-4.64 3.27-9.34 6.45-14.03 9.66-.19.13-.51.13-.66.29-1.29 1.38-1.89 4.79-4.55.95-4.39-6.34-4.56-6.64-.25-9.53 4.2-2.81 8.47-5.51 12.68-8.31 1.05-.7 2.6-1.33 1.43-3.06-1.08-1.6-2.3-1.22-3.7-.27-3.89 2.62-7.86 5.13-11.79 7.69-.71.46-1.45.91-2.02 1.52-.76.8-.12 2.76-1.79 2.73-1.68-.03-2.05-1.86-2.89-2.96-1.33-1.72-2.47-3.57-3.73-5.35-.97-1.37-.47-2.8.92-2.52 2.38.48 3.55-1.09 5.1-2.04 4-2.46 7.55-5.61 11.81-7.67.84-.41 1.96-1.06 2.16-1.81 1.11-4.17 2.47-2.11 3.69-.19 1.42 2.24 3.5 4.15 4.05 6.49Z" fill="#fcb713"/>
            <path d="M964.18 701.46c.41 3.58-1.82 7.32.42 10.87.53.83-.54 1.55-1.42 1.65-2.76.3-5.65.76-7.96-1.23-1.37-1.18-2.42-1.12-3.86-.33-2.69 1.47-5.58 1.56-8.39.49-3.03-1.16-3.82-3.72-3.8-6.74.02-3.47.03-6.88 3.88-8.58 3-1.32 6.2-2.04 9.41-2.51 2.22-.33 2.31-1.68 2.36-3.29.03-1.14-.08-2.21-1.58-2.36-1.86-.18-2.81.46-3.21 2.47-.68 3.37-3.62 2.5-5.89 2.61-1.66.08-3.25-.4-3.41-2.43-.2-2.46 1.4-3.83 3.45-4.52 5.57-1.89 11.17-1.67 16.59.55 2.43.99 3.66 2.94 3.46 5.76-.17 2.52-.04 5.06-.04 7.59Z" fill="#fcb713"/>
            <path d="M1087.29 624.79c6.99-.07 15.73 7.88 15.72 14.31 0 6.1-6.34 12.46-12.68 12.49-6.15.03-15.95-5.96-16.04-13.96-.07-6.82 5.89-12.76 12.99-12.84Z" fill="#fcb713"/>
            <path d="M826.84 595.73c-.04 1.39-5.43 5.31-6.31 4.73-1.29-.85-1.33-2.27-.79-3.56.31-.75.98-1.36 1.54-1.99.89-1 1.34-2.12.52-3.27-.9-1.27-1.96-.14-2.87.13-1.85.54-3.66 1.21-5.46 1.9-.72.28-1.84.28-1.8 1.41.04 1.04.64 2 1.75 1.93 1.85-.12 2.8.75 2.92 2.4.13 1.9-1.76 1.57-2.81 2.15-.42.23-.89.45-1.35.49-1.33.13-2.72 1.91-3.93.34-1.07-1.38-.79-2.88.84-4.04.71-.5.62-1.56.08-2.31s-1.31-.39-1.98-.18c-2.98.94-5.95 1.91-8.93 2.88-1.19.39-1.71 1.11-1.55 2.45.12 1-.68 1.52-1.6 1.59-.89.06-1.2-.74-1.43-1.39-1.38-3.86-2.71-7.73-4.06-11.6-.24-.69-.54-1.41.24-1.94s1.62-.67 2.23.2c1.08 1.55 2.37.72 3.55.33 5.82-1.94 11.65-3.87 17.43-5.93 1.79-.64 3.92-.74 4.56-3.43.32-1.36 1.97-1.15 2.66.32.57 1.19.92 2.49 1.41 3.72 1.14 2.87 1.68 5.95 3.62 8.54.89 1.2 1.1 2.9 1.54 4.14Z" fill="#fcb713"/>
            <path d="M841.52 666.17c-6.64-.06-12.01-6.19-11.76-13.43.17-5.02 5.2-11.01 10.82-12.88 5.2-1.74 10.35-.19 13.97 4.2 3.81 4.62 2.82 11.53-1.99 15.08-1.34.99-1.92.28-2.68-.51-1.77-1.82-3.53-3.65-5.3-5.46-.5-.51-1.06-1.42-1.56-1.4-3.44.12-4.64 3.41-6.89 5.22-1.25 1.01-1.14 2.65-.04 3.92 1.69 1.94 3.63 2.02 5.85.77.96-.54 2-1.64 3.25-.88 1.01.62 2.11 1.46 2.09 2.78-.02 1.25-1.23 1.65-2.2 2.14-1.14.58-2.36.41-3.56.45" fill="#fcb713"/>
            <path d="M989.31 711.4c-2.48.24-3.34-.88-2.64-1.84 1.77-2.42.45-4.63.05-6.88-.96-5.35-2.07-10.67-3.14-15.99-.25-1.27-.27-2.59-1.55-3.5-2.13-1.53-1.29-2.48.78-3.03.12-.03.24-.04.36-.07q9.03-2.22 10.87 6.8c1.13 5.56 2.21 11.13 3.33 16.69.19.94.21 2.2.82 2.72 2.98 2.57 1.24 3.17-1.32 3.63-2.85.52-5.68 1.1-7.57 1.47Z" fill="#fcb713"/>
            <path d="M1106.08 571.16c-.14-4.25 1.27-6.79 1.5-9.66.19-2.44 3.7-1 5.64-1.68.65-.23 1.54-.01 1.62.95.14 1.65-.72 2.73-2.17 3.42-.43.21-.86.47-1.21.78-.95.84-2.81 1.69-1.97 2.99.92 1.42 2.41-.09 3.45-.67 2.95-1.64 5.92-3.2 9.03-4.53 2.18-.93 4.38-1.35 6.7-1.09 4 .45 6.29 3.26 5.86 7.23-.27 2.48-1.52 4.64-1.56 7.36-.04 2.57-3.57 1.11-5.46 1.75-.76.26-1.88.33-1.97-.87-.14-1.71.59-3.01 2.33-3.65.66-.25 1.28-.7 1.81-1.18.7-.63 1.68-1.32 1.14-2.41-.73-1.47-1.96-.57-2.83-.18-3.74 1.66-7.05 4.18-11.03 5.37-1.62.49-3.2 1.07-4.94.95-3.95-.28-5.92-2.35-5.92-4.88Z" fill="#fbb713"/>
            <path d="M975.81 685.84c1.83-.18 2.79.31 2.94 2.48.44 6.14 1.17 12.26 1.79 18.39.07.72-.12 1.69.27 2.12 4.06 4.49-.21 3.65-2.51 3.92-2.51.3-5.05.44-7.57.65-1.27.1-2.19-.81-1.47-1.66 2.1-2.48.72-5.06.61-7.56-.17-3.62-.56-7.22-.9-10.83-.09-.96-.12-1.99-.51-2.84-1.7-3.77-1.75-3.75 2.68-4.14 1.43-1.33 3.2.48 4.67-.52Z" fill="#fbb713"/>
            <path d="M827.42 606.33c-.36.41-.31.81-.11 1.31 1.8 4.49 1.72 4.33-2.56 6.24-5.27 2.35-10.4 5.01-15.59 7.55-.32.16-.66.33-.92.57q-3.73 3.24-6-1.26c-1.02-2.04-2.84-4.16-2.76-6.18.13-3.25 3.4-.78 5.27-1.71 4.83-2.42 9.68-4.86 14.55-7.22.54-.26 1.31-.51 1.48-.96 1.88-4.91 3.63-1.57 5.41.04.87.19 1.46.6 1.24 1.62Z" fill="#fcb713"/>
            <path d="M827.42 606.33c-.41-.54-.83-1.08-1.24-1.62.82-1.13-1.01-3.15 1.06-3.73 1.87-.53 2.86 1.11 3.68 2.35 1.24 1.88 4.06 4.31 1.75 6.14-2.24 1.78-3.4-2.09-5.25-3.14" fill="#f0b11a"/>
            <path d="M967.58 685.07c-1.37-1.85.01-2.6 1.37-3.24 2.11-1.01 4.41-1.22 6.71-1.27.94-.02 2.07-.05 2.34 1.18.26 1.17-.62 1.78-1.49 2.21-.97.48-2.02.79-3.03 1.17-1.97.85-3.94.31-5.9-.05" fill="#f6b418"/>
            <path d="M967.58 685.07c1.97.02 3.93.04 5.9.05.58.87 1.57.45 2.33.72-1.47.94-3.08.62-4.67.52-.96-1.07-2.73.09-3.57-1.3Z" fill="#5e574a"/>
            <path d="M955.86 561.82c-3.91 2.4-6.85 5.75-10 8.82-6.96 6.78-14.87 12.29-23.17 17.22-7.16 4.25-14.87 5.92-23.27 4.7-14.96-2.17-19.33-13.25-18.62-24.85.23-3.77 1.26-7.45 3.42-10.58 1.28-1.85 1.3-3.17.1-5.12-4.26-6.91-4.99-14.25-1.92-21.86 4.71-11.68 17.39-15.42 28.8-13.14 4.26.85 8.35 2.41 12.06 4.75 8.38 5.27 16.51 10.86 23.58 17.89 3.48 3.46 7.15 6.74 10.83 10.2 2.46-4.24-1.3-5.8-3.4-7.34-3.45-2.52-6.39-5.52-9.24-8.59-7.6-8.2-15.72-15.99-20.84-26.22-4.24-8.48-5.31-16.97-1.34-25.81 4.78-10.64 16.76-13.87 25.87-12.11 3.8.73 7.18 3.07 10.74 3.99 3.33.86 6.35-3.09 10.09-3.74 8.47-1.46 16.72-.87 23.3 4.83 7.66 6.64 8.22 15.9 6.15 25.12-1.52 6.74-5.18 12.54-9.81 17.83-4.14 4.72-7.76 9.9-12.23 14.33-4.18 4.15-8.53 8.13-12.94 12.04-1.77 1.57-2.45 3.16-1.55 5.31.66.52.98-.07 1.23-.35 5.41-6.22 12.08-11.04 18.19-16.48 5.44-4.84 11.77-8.38 18.23-11.66 9.44-4.8 18.92-4.26 28.19.38 8.77 4.39 13.23 17.67 8.67 27.59-2.22 4.82-2.79 8.43-.17 13.38 3.09 5.83 2.38 12.51.2 18.74-3.34 9.53-11.36 12.16-20.27 13.17-6.99.79-13.35-1.25-19.43-4.58-8.31-4.55-15.69-10.29-22.77-16.56a262 262 0 0 1-12.2-11.49c-.4 7.08-.7 13.63-1.15 20.17-1.09 15.8-2.99 31.51-5.81 47.11-.19 1.06-.54 2.1-.87 3.13-.4 1.23-1.39 1.56-2.57 1.54-1.17-.03-1.67-.7-1.92-1.78-1.56-6.74-5.25-12.41-9.07-18.01-.61-.89-1.3-1.6-.44-2.87 6.09-9.01 8.26-19.49 10.95-29.75 1.66-6.34 4.13-12.51 4.4-19.34Z" fill="#231f20"/>
            <path d="M991.96 627.12c-2.81-.02-4.71-1.16-4.71-4.2 0-3.11 2.12-4.12 4.78-4.13 2.71-.01 4.41 1.57 4.37 4.22-.04 2.62-1.69 4.13-4.45 4.12Z" fill="#262222"/>
            <path d="M970.62 627.13c-2.6-.05-4.41-1.15-4.51-3.97-.1-2.75 1.41-4.28 4.12-4.38 2.69-.09 4.79.88 4.89 3.98.09 2.97-1.56 4.37-4.5 4.37" fill="#242021"/>
            <path d="M985.8 607.63c-.23 2.53-1.79 3.85-4.23 4.04-2.27.17-4.56-2.2-4.29-4.43.32-2.63 1.87-4.23 4.63-4.03 2.55.19 3.83 1.79 3.89 4.42" fill="#282323"/>
            <path d="M907.3 403.13c.76 5.71 1.51 11.05 2.15 16.4.18 1.49-.07 3.1-1.93 3.36-1.76.25-2.14-1.24-2.46-2.56-.95-4.01-1.46-8.08-1.4-12.22.03-2.33 1.36-3.69 3.63-4.98Z" fill="#262222"/>
            <path d="M1008.05 421.52c2.22-6.66 2.4-13.66 3.45-20.52.42-2.74.7-5.51 1.22-8.23.25-1.3.9-2.72 2.59-2.47 1.76.26 1.81 1.82 1.64 3.14-1.22 9.69-2.46 19.39-3.81 29.06-.22 1.54-.9 3.18-3.07 2.74-2.1-.43-2-2.08-2.02-3.71Z" fill="#242021"/>
            <path d="M919.32 705.48c.92-3.9 1.73-7.29 2.5-10.69.22-.96.27-2.02 1.66-1.84 1.29.17 2.5.74 2.37 2.2-.32 3.6-1.05 7.14-2.4 10.51-.54 1.36-1.85 1.33-3.1 1.17-1.26-.16-1.15-.96-1.02-1.35Z" fill="#252122"/>
            <path d="M928.88 683.95c-.46 1.74-.78 3.53-1.44 5.2-.56 1.42-1.83 1.77-3.32 1.29-1.68-.55-.82-1.78-.67-2.7.25-1.54.61-3.08 1.1-4.56.32-.97-.16-2.78 1.86-2.39 1.65.32 2.48 1.38 2.47 3.17Z" fill="#262222"/>
            <path d="M1075.22 668.09c-.74-.69-1.29-1.15-1.78-1.67-2.14-2.29-4.29-4.58-6.37-6.93-.61-.69-2.05-1.33-.67-2.58.93-.85 2.03-1.64 3.2-.63 2.74 2.37 5.4 4.88 7.31 7.97 1.05 1.71-.49 2.72-1.7 3.83Z" fill="#272323"/>
            <path d="M1059.78 646.6c1.96 1.71 4.55 3.09 5.91 5.69.56 1.06-.16 2.14-1.15 2.75-1 .61-1.96.61-2.83-.45-1.3-1.57-2.76-3.02-4.11-4.56-.5-.57-1.49-1.13-.58-2.07.66-.69 1.43-1.3 2.77-1.36Z" fill="#282424"/>
            <path d="M1124.36 593.72c-.31 1.39-.98 2.25-2.74 1.68-4.91-1.58-9.84-3.09-14.76-4.65-1.21-.39-2.28-.97-1.83-2.55.51-1.84 1.76-1.54 3.13-1.1 4.57 1.46 9.16 2.85 13.72 4.31 1.11.35 2.42.58 2.47 2.31Z" fill="#262222"/>
            <path d="M954.44 702.49c-.15 1.93-.28 3.25-.34 4.56-.06 1.55-1.06 2.02-2.36 2.15-1.5.15-2.31-.63-2.29-2.07.03-2.15.08-4.32.37-6.44.29-2.11 2-3.27 3.86-2.98 1.72.27.62 2.11.75 3.25.08.71.01 1.44.01 1.53" fill="#272322"/>
            <path d="M1081.31 630.85c.66.34 1.7.69 2.54 1.31 4.05 3.01 8.05 6.1 12.06 9.16 1.2.91 2.49 2.02 1.26 3.55-1.29 1.62-2.6.24-3.73-.56-4.2-2.97-8.01-6.48-12.54-9.02-1.09-.61-2.35-1.48-1.86-3.12.26-.87.94-1.37 2.27-1.32" fill="#272222"/>
            <path d="M847.02 651.42c-.96-.31-2.14-1.5-1.79-2.13 1.14-2.06 2.9-3.78 5.07-4.77.96-.44 1.73.6 1.94 1.61.17.82-4.15 5.24-5.21 5.28Z" fill="#2e2928"/>
        </g>
    </g>
</svg>
